<svg xmlns="http://www.w3.org/2000/svg" width="256" height="256" viewBox="0 0 100 100"><rect width="100" height="100" rx="20" fill="#ffbfc0"></rect><path d="M50.05 74.03L50.05 74.03Q46.09 74.03 42.35 73.04Q38.62 72.05 36.09 70.25L36.09 70.25Q34.20 68.72 32.67 66.20L32.67 66.20L32.05 65.12L31.23 63.68Q30.43 62.15 30.43 60.89L30.43 60.89Q30.43 58.55 32.36 56.80Q34.30 55.04 36.73 55.04L36.73 55.04Q39.78 55.04 41.59 57.74L41.59 57.74L42.66 59.54L43.20 60.62Q43.75 61.70 45.28 62.33L45.28 62.33Q47.62 63.05 49.33 63.05L49.33 63.05Q50.59 63.05 52.48 62.78L52.48 62.78Q57.25 61.79 57.42 59.81L57.42 59.81L57.42 59.45Q57.42 58.37 56.44 57.38L56.44 57.38Q55.27 56.30 51.03 54.59L51.03 54.59L47.08 53.06Q43.75 51.89 42.30 51.17L42.30 51.17Q35.73 48.29 33.76 44.15L33.76 44.15Q32.41 41.45 32.41 38.84L32.41 38.84Q32.41 36.68 33.30 34.79L33.30 34.79Q35.11 30.38 41.67 27.68L41.67 27.68Q46.00 25.97 50.59 25.97L50.59 25.97Q51.48 25.97 53.28 26.15L53.28 26.15Q61.20 26.96 67.14 32.36L67.14 32.36Q69.03 33.98 69.03 36.50L69.03 36.50Q69.03 38.84 67.37 40.73Q65.70 42.62 63.28 42.62L63.28 42.62Q61.39 42.62 59.50 41.36L59.50 41.36L57.34 39.74Q55.80 38.66 55.09 38.39L55.09 38.39Q52.39 37.49 49.95 37.49L49.95 37.49Q47.70 37.49 46.09 37.94L46.09 37.94Q44.91 38.39 44.91 39.20L44.91 39.20Q44.91 39.74 45.50 40.10Q46.09 40.46 47.44 41.09L47.44 41.09Q49.05 41.81 52.11 42.80L52.11 42.80Q54.19 43.43 56.34 44.42L56.34 44.42Q57.78 45.05 59.54 45.82Q61.30 46.58 63.19 47.93L63.19 47.93Q66.16 49.91 67.86 52.84Q69.58 55.76 69.58 59.36L69.58 59.36Q69.58 60.53 69.48 61.16L69.48 61.16Q68.67 66.74 64.40 69.80Q60.13 72.86 54.19 73.76L54.19 73.76Q52.20 74.03 50.05 74.03L50.05 74.03Z" fill="#fff"></path></svg>